<?xml version="1.0" standalone="no"?>
<!DOCTYPE svg PUBLIC "-//W3C//DTD SVG 20010904//EN"
 "http://www.w3.org/TR/2001/REC-SVG-20010904/DTD/svg10.dtd">
<svg version="1.0" xmlns="http://www.w3.org/2000/svg"
 width="213.000000pt" height="198.000000pt" viewBox="0 0 213.000000 198.000000"
 preserveAspectRatio="xMidYMid meet">

<g transform="translate(0.000000,198.000000) scale(0.100000,-0.100000)"
fill="#000000" stroke="none">
<path d="M0 990 l0 -990 1065 0 1065 0 0 990 0 990 -1065 0 -1065 0 0 -990z
m1165 831 c54 -24 592 -328 626 -353 15 -11 40 -43 56 -72 l28 -51 3 -348 c4
-398 0 -428 -66 -495 -24 -25 -148 -100 -347 -212 -294 -165 -313 -174 -372
-178 -34 -2 -76 1 -94 7 -17 6 -171 90 -341 187 -341 194 -357 207 -378 309
-7 36 -10 170 -8 392 3 324 4 340 25 378 12 22 36 54 55 71 35 33 588 349 648
371 50 18 119 15 165 -6z"/>
<path d="M970 1607 c-169 -90 -428 -241 -454 -265 -53 -50 -56 -67 -56 -369 0
-249 2 -282 19 -319 23 -50 30 -55 272 -192 284 -160 273 -155 338 -150 49 4
84 21 291 138 129 73 243 140 254 149 10 9 27 33 37 53 17 34 19 62 19 317 0
174 -4 290 -11 308 -23 61 -37 71 -334 238 -253 143 -272 147 -375 92z m80
-221 l0 -114 -37 -7 c-88 -16 -196 -101 -229 -180 -22 -54 -27 -134 -11 -187
l15 -46 -102 -54 c-84 -46 -102 -52 -108 -39 -11 25 -9 402 2 442 15 52 48 77
240 179 205 110 224 120 228 120 1 0 2 -51 2 -114z m323 -21 c213 -120 201
-99 205 -377 2 -120 0 -224 -5 -232 -6 -11 -27 -3 -104 41 l-95 55 14 57 c12
44 12 68 3 115 -23 127 -106 208 -258 252 -9 2 -13 33 -13 107 0 57 3 107 7
110 3 4 25 -3 47 -16 23 -13 112 -63 199 -112z m-198 -209 c58 -27 88 -57 110
-108 41 -100 -12 -218 -117 -262 -21 -9 -63 -16 -95 -16 -231 1 -306 277 -104
382 69 36 136 37 206 4z m-230 -466 c40 -20 66 -24 130 -25 95 0 149 21 214
83 l43 40 94 -56 c52 -31 93 -61 91 -66 -4 -12 -355 -217 -400 -233 -29 -10
-48 -11 -75 -3 -39 11 -404 222 -409 236 -1 5 41 34 94 65 l96 56 36 -36 c20
-20 59 -48 86 -61z"/>
</g>
</svg>
